<mxfile host="app.diagrams.net" modified="2023-11-21T09:54:05.316Z" agent="Mozilla/5.0 (Windows NT 10.0; Win64; x64) AppleWebKit/537.36 (KHTML, like Gecko) Chrome/119.0.0.0 Safari/537.36" version="22.1.3" etag="o8s0zzUalqTX2f5p1pTM" type="github">
  <diagram name="第 1 页" id="Y27yjv-khRq0Be3qKuFT">
    <mxGraphModel>
      <root>
        <mxCell id="0" />
        <mxCell id="1" parent="0" />
      </root>
    </mxGraphModel>
  </diagram>
</mxfile>
